<?xml version="1.0" encoding="utf-8"?>
<!-- Generator: Adobe Illustrator 21.1.0, SVG Export Plug-In . SVG Version: 6.00 Build 0)  -->
<svg version="1.1" xmlns="http://www.w3.org/2000/svg" xmlns:xlink="http://www.w3.org/1999/xlink" x="0px" y="0px"
	 viewBox="0 0 157.4 150" style="enable-background:new 0 0 157.4 150;" xml:space="preserve">
<style type="text/css">
	.st0{display:none;}
	.st1{display:inline;}
</style>
<g id="paw_straight" class="st0">
	<g class="st1">
		<path d="M115.7,87.5c-1,1.5-4.5,12.1-20.6,9.9c-9.5-1.3-15-9.4-16.4-9.4c-1.7,0-7.7,8-16,9c-15.4,1.9-19.8-7.9-21-9.5
			C39,83.8,54.2,56,78.7,56C101.6,56,119,82.2,115.7,87.5z"/>
	</g>
	<ellipse class="st1" cx="38.7" cy="51" rx="12" ry="18"/>
	<ellipse class="st1" cx="62.7" cy="31" rx="12" ry="21"/>
	<ellipse class="st1" cx="118.7" cy="51" rx="12" ry="18"/>
	<ellipse class="st1" cx="94.7" cy="31" rx="12" ry="21"/>
</g>
<g id="paw_angled" class="st0">
	<g class="st1">
		<g>
			<path d="M108,129.1c-1.8,1.4-10.4,12.7-28.8,3.4c-10.9-5.5-14.1-17.4-15.8-18.1c-2.1-0.7-12.5,6.4-22.9,4.2
				C21.2,114.6,20,101,19.2,98.6c-1.7-5.5,28-32.6,57.4-22.5C104.1,85.5,114.2,124.1,108,129.1z"/>
		</g>
		<ellipse transform="matrix(0.3251 -0.9457 0.9457 0.3251 -29.9622 65.2017)" cx="30.7" cy="53.6" rx="22.8" ry="15.2"/>
		<ellipse transform="matrix(0.3251 -0.9457 0.9457 0.3251 8.3615 90.7155)" cx="67.7" cy="39.5" rx="26.6" ry="15.2"/>
		<ellipse transform="matrix(0.3251 -0.9457 0.9457 0.3251 3.6028 178.2186)" cx="126.7" cy="86.6" rx="22.8" ry="15.2"/>
		<ellipse transform="matrix(0.3251 -0.9457 0.9457 0.3251 21.7875 135.9223)" cx="106.1" cy="52.7" rx="26.6" ry="15.2"/>
	</g>
</g>
<g id="paw_angled_copy">
	<g>
		<g>
			<path d="M114.6,141.4c-2.2,1.8-12.7,15.6-35.3,4.2C66,138.8,62.1,124.2,60,123.4c-2.5-0.9-15.3,7.8-28.1,5.1
				c-23.7-5-25.2-21.7-26.1-24.6c-2-6.7,34.3-40,70.3-27.6C109.9,87.9,122.2,135.2,114.6,141.4z"/>
		</g>
		<ellipse transform="matrix(0.3251 -0.9457 0.9457 0.3251 -32.7047 51.6853)" cx="19.9" cy="48.8" rx="28" ry="18.7"/>
		<ellipse transform="matrix(0.3251 -0.9457 0.9457 0.3251 14.2779 82.9638)" cx="65.3" cy="31.5" rx="32.7" ry="18.7"/>
		<ellipse transform="matrix(0.3251 -0.9457 0.9457 0.3251 8.4439 190.2373)" cx="137.5" cy="89.2" rx="28" ry="18.7"/>
		<ellipse transform="matrix(0.3251 -0.9457 0.9457 0.3251 30.7373 138.3846)" cx="112.3" cy="47.7" rx="32.7" ry="18.7"/>
	</g>
</g>
<g id="guides" class="st0">
</g>
</svg>
