<?xml version="1.0" encoding="utf-8"?>
<!-- Generator: Adobe Illustrator 21.1.0, SVG Export Plug-In . SVG Version: 6.00 Build 0)  -->
<svg version="1.1" xmlns="http://www.w3.org/2000/svg" xmlns:xlink="http://www.w3.org/1999/xlink" x="0px" y="0px"
	 viewBox="0 0 209.8 200" style="enable-background:new 0 0 209.8 200;" xml:space="preserve">
<style type="text/css">
	.st0{display:none;}
	.st1{display:inline;}
</style>
<g id="paw_straight" class="st0">
	<g class="st1">
		<path d="M141.9,112.5c-1,1.5-4.5,12.1-20.6,9.9c-9.5-1.3-15-9.4-16.4-9.4c-1.7,0-7.7,8-16,9c-15.4,1.9-19.8-7.9-21-9.5
			c-2.6-3.7,12.5-31.5,37-31.5C127.8,81,145.2,107.2,141.9,112.5z"/>
	</g>
	<ellipse class="st1" cx="64.9" cy="76" rx="12" ry="18"/>
	<ellipse class="st1" cx="88.9" cy="56" rx="12" ry="21"/>
	<ellipse class="st1" cx="144.9" cy="76" rx="12" ry="18"/>
	<ellipse class="st1" cx="120.9" cy="56" rx="12" ry="21"/>
</g>
<g id="paw_angled" class="st0">
	<g class="st1">
		<g>
			<path d="M134.2,154.1c-1.8,1.4-10.4,12.7-28.8,3.4c-10.9-5.5-14.1-17.4-15.8-18.1c-2.1-0.7-12.5,6.4-22.9,4.2
				c-19.3-4.1-20.5-17.7-21.3-20.1c-1.7-5.5,28-32.6,57.4-22.5C130.3,110.5,140.4,149.1,134.2,154.1z"/>
		</g>
		<ellipse transform="matrix(0.3251 -0.9457 0.9457 0.3251 -35.9035 106.8765)" cx="56.9" cy="78.6" rx="22.8" ry="15.2"/>
		<ellipse transform="matrix(0.3251 -0.9457 0.9457 0.3251 2.4202 132.3904)" cx="94" cy="64.5" rx="26.6" ry="15.2"/>
		<ellipse transform="matrix(0.3251 -0.9457 0.9457 0.3251 -2.3385 219.8934)" cx="152.9" cy="111.6" rx="22.8" ry="15.2"/>
		<ellipse transform="matrix(0.3251 -0.9457 0.9457 0.3251 15.8462 177.5971)" cx="132.4" cy="77.7" rx="26.6" ry="15.2"/>
	</g>
</g>
<g id="paw_angled_copy">
	<g>
		<g>
			<path d="M152.9,188.5c-2.9,2.3-16.9,20.8-47,5.6c-17.8-9-23-28.5-25.9-29.5c-3.4-1.2-20.4,10.4-37.4,6.9
				c-31.6-6.6-33.6-28.9-34.8-32.8c-2.7-9,45.7-53.3,93.8-36.8C146.5,117.2,162.9,180.3,152.9,188.5z"/>
		</g>
		<ellipse transform="matrix(0.3251 -0.9457 0.9457 0.3251 -43.6063 68.9138)" cx="26.5" cy="65" rx="37.3" ry="24.9"/>
		<ellipse transform="matrix(0.3251 -0.9457 0.9457 0.3251 19.0371 110.6184)" cx="87" cy="42" rx="43.5" ry="24.9"/>
		<ellipse transform="matrix(0.3251 -0.9457 0.9457 0.3251 11.2585 253.6497)" cx="183.3" cy="118.9" rx="37.3" ry="24.9"/>
		<ellipse transform="matrix(0.3251 -0.9457 0.9457 0.3251 40.9831 184.5127)" cx="149.8" cy="63.5" rx="43.5" ry="24.9"/>
	</g>
</g>
<g id="guides" class="st0">
</g>
</svg>
